# xmcd
# 
# Track frame offsets:
#     150
#     16009
#     31942
#     49378
# 
# Disc length: 839
# 
# Revision: 2
# Processed by: cddbd v1.5.2PL0 Copyright (c) Steve Scherf et al.
# Submitted via: BonkEnc v1.0.8
# 
DISCID=26034504
DTITLE=Königwerq - unschlagbar
DYEAR=2005
DGENRE=pop
TTITLE0=unschlagbar - radio version
TTITLE1=unschlagbar - instrumental
TTITLE2=unschlagbar - lied - akustik version
TTITLE3=unschlagbar - grand prix version
EXTD=
EXTT0=
EXTT1=
EXTT2=
EXTT3=
PLAYORDER=
